HIERARCHY
ROOT Hips
{
    OFFSET 0.000000 0.000000 0.000000
    CHANNELS 6 Xposition Yposition Zposition Zrotation Xrotation Yrotation
    JOINT Spine
    {
        OFFSET -0.000000 7.858286 0.000000
        CHANNELS 3 Zrotation Xrotation Yrotation
        JOINT Spine1
        {
            OFFSET -0.000000 25.138355 0.000000
            CHANNELS 3 Zrotation Xrotation Yrotation
            JOINT Neck
            {
                OFFSET -0.000000 25.035116 2.275919
                CHANNELS 3 Zrotation Xrotation Yrotation
                JOINT Head
                {
                    OFFSET -0.000000 13.416585 -1.916655
                    CHANNELS 3 Zrotation Xrotation Yrotation
                    End Site
                    {
                        OFFSET -0.000000 23.958189 0.000000
                    }
                }
            }
            JOINT LeftShoulder
            {
                OFFSET 3.815342 24.034578 -0.234509
                CHANNELS 3 Zrotation Xrotation Yrotation
                JOINT LeftArm
                {
                    OFFSET 8.622727 0.000000 0.000000
                    CHANNELS 3 Zrotation Xrotation Yrotation
                    JOINT LeftForeArm
                    {
                        OFFSET 31.706440 0.000000 0.000000
                        CHANNELS 3 Zrotation Xrotation Yrotation
                        JOINT LeftHand
                        {
                            OFFSET 23.773136 0.000000 0.000000
                            CHANNELS 3 Zrotation Xrotation Yrotation
                            End Site
                            {
                                OFFSET 14.374913 0.000000 0.000000
                            }
                        }
                    }
                }
            }
            JOINT RightShoulder
            {
                OFFSET -3.836082 24.034578 -0.234509
                CHANNELS 3 Zrotation Xrotation Yrotation
                JOINT RightArm
                {
                    OFFSET -8.622727 0.000000 0.000000
                    CHANNELS 3 Zrotation Xrotation Yrotation
                    JOINT RightForeArm
                    {
                        OFFSET -31.706440 0.000000 0.000000
                        CHANNELS 3 Zrotation Xrotation Yrotation
                        JOINT RightHand
                        {
                            OFFSET -23.773136 0.000000 0.000000
                            CHANNELS 3 Zrotation Xrotation Yrotation
                            End Site
                            {
                                OFFSET -14.374913 0.000000 0.000000
                            }
                        }
                    }
                }
            }
        }
    }
    JOINT LeftUpLeg
    {
        OFFSET 9.583276 0.000000 0.000000
        CHANNELS 3 Zrotation Xrotation Yrotation
        JOINT LeftLeg
        {
            OFFSET -0.000000 -36.453522 0.000000
            CHANNELS 3 Zrotation Xrotation Yrotation
            JOINT LeftFoot
            {
                OFFSET -0.000000 -41.465855 0.000000
                CHANNELS 3 Zrotation Xrotation Yrotation
                JOINT LeftToeBase
                {
                    OFFSET -0.000000 -6.229129 14.374913
                    CHANNELS 3 Zrotation Xrotation Yrotation
                    End Site
                    {
                        OFFSET -0.000000 0.000000 3.833310
                    }
                }
            }
        }
    }
    JOINT RightUpLeg
    {
        OFFSET -9.583276 0.000000 0.000000
        CHANNELS 3 Zrotation Xrotation Yrotation
        JOINT RightLeg
        {
            OFFSET -0.000000 -36.453522 0.000000
            CHANNELS 3 Zrotation Xrotation Yrotation
            JOINT RightFoot
            {
                OFFSET -0.000000 -41.465855 0.000000
                CHANNELS 3 Zrotation Xrotation Yrotation
                JOINT RightToeBase
                {
                    OFFSET -0.000000 -6.229129 14.374913
                    CHANNELS 3 Zrotation Xrotation Yrotation
                    End Site
                    {
                        OFFSET -0.000000 0.000000 3.833310
                    }
                }
            }
        }
    }
}
MOTION
Frames:    13
Frame Time:    0.004000
-10.342650    77.490204    -117.408035    1.396373    -5.183074    -6.789783    -4.982836    5.475417    -0.262637    1.298869    13.449015    -0.654333    -0.911336    31.449108    -1.380112    -1.169345    -10.146430    -1.840423    -14.515983    23.732857    8.472579    -36.093868    36.706593    -19.298632    1.267266    -6.215837    -51.806610    19.021395    -5.910862    -1.834650    17.433855    30.656799    -3.701427    19.753702    42.704540    29.789938    -16.573235    -22.764460    47.696922    -16.677149    -14.985641    -5.720093    2.762624    -18.287741    4.644509    -9.560659    20.786039    4.888556    10.238922    -10.665563    4.548660    0.000000    0.000000    0.000000    -5.687379    -14.954513    -1.519451    7.522598    65.014381    5.548617    -4.659996    -15.585208    -12.706137    0.000000    0.000000    0.000000    
-10.315828    77.584496    -117.207108    1.391160    -5.126381    -6.720389    -4.994222    5.635214    -0.309816    1.261799    13.522668    -0.705291    -0.982480    31.534065    -1.337589    -1.052165    -10.500360    -1.784017    -14.328044    23.798973    8.339327    -36.231239    36.700642    -19.039318    1.545069    -6.329463    -52.507915    19.259346    -5.888381    -1.869243    17.514320    30.770889    -3.810812    19.809940    42.678925    29.710079    -16.544003    -22.816404    47.534630    -17.080748    -15.049207    -5.795924    2.704699    -18.087942    4.262862    -9.643869    20.560205    5.220083    9.920726    -10.796431    4.529035    0.000000    0.000000    0.000000    -5.550576    -15.518521    -1.676943    7.352306    64.787170    5.788497    -4.080911    -15.909863    -12.625215    0.000000    0.000000    0.000000    
-10.292269    77.680603    -116.990509    1.352348    -5.118549    -6.644135    -4.990360    5.877387    -0.365397    1.282471    13.650664    -0.775320    -1.287226    31.322933    -1.255802    -0.735917    -10.586555    -1.669449    -14.169541    23.517511    8.201822    -36.549686    36.814735    -18.431337    1.798178    -6.323469    -53.373089    19.844574    -5.748472    -1.854143    17.492495    30.639277    -3.894766    20.102924    42.751938    29.460690    -16.399452    -22.793972    47.538757    -17.914562    -14.997828    -6.113482    2.688362    -17.871244    4.229334    -9.630374    20.475748    5.206916    9.568428    -10.964020    4.523742    0.000000    0.000000    0.000000    -5.356068    -16.082706    -1.896349    7.058465    64.504303    6.072253    -4.029283    -16.092281    -12.555297    0.000000    0.000000    0.000000    
-10.268577    77.774223    -116.791412    1.328091    -5.049884    -6.568025    -4.963708    6.116788    -0.425184    1.206837    13.643662    -0.835052    -1.302687    31.316368    -1.244786    -0.687916    -10.877157    -1.650694    -13.942040    23.385468    8.138485    -36.832996    36.891289    -17.956589    2.008883    -6.271489    -54.226074    20.568512    -5.574670    -1.800554    17.557251    30.604399    -3.985871    20.325491    42.896248    29.212950    -16.429424    -22.956806    47.397858    -17.415758    -15.241088    -5.871172    2.659235    -17.723289    4.089430    -9.627234    20.367056    5.305547    9.214391    -11.113901    4.522770    0.000000    0.000000    0.000000    -5.176814    -16.731131    -1.943264    7.028967    64.204941    6.149187    -3.054159    -16.215118    -12.359476    0.000000    0.000000    0.000000    
-10.241898    77.866730    -116.577675    1.303661    -5.043527    -6.454248    -4.874162    6.430607    -0.524542    0.994470    13.589958    -0.917046    -1.281211    31.274609    -1.180964    -0.605512    -11.056426    -1.562110    -13.643970    23.420540    8.218771    -37.028130    37.051167    -17.679804    2.352527    -6.455349    -55.115837    20.819811    -5.530530    -1.614450    17.676859    30.650593    -4.042427    20.541986    42.995235    28.959749    -16.341867    -23.069633    47.429955    -17.769159    -15.341550    -6.086305    2.605056    -17.532736    4.061100    -9.575268    20.315239    5.279685    8.850053    -11.275143    4.496613    0.000000    0.000000    0.000000    -5.003987    -17.140356    -2.123537    6.825031    63.628853    6.359752    -3.139147    -16.415262    -12.287149    0.000000    0.000000    0.000000    
-10.231776    77.957298    -116.389038    1.264425    -4.968463    -6.362058    -4.901412    6.664311    -0.569598    1.090407    13.630808    -0.985553    -1.377546    31.125807    -1.177047    -0.581445    -11.203938    -1.565212    -13.558784    23.162811    8.094473    -37.300228    37.231613    -17.044210    2.618408    -6.499774    -56.017151    21.376320    -5.411670    -1.576726    17.695431    30.582821    -4.195261    20.788187    43.028130    28.686781    -16.251320    -23.093828    47.475784    -17.935520    -15.365552    -6.246228    2.615308    -17.430742    4.034167    -9.553795    20.287594    5.226287    8.427653    -11.440112    4.489298    0.000000    0.000000    0.000000    -4.777577    -17.717323    -2.258565    6.518732    63.196861    6.710770    -2.557990    -16.525772    -12.119658    0.000000    0.000000    0.000000    
-10.199743    78.030647    -116.200340    1.273975    -4.915025    -6.287617    -4.950250    6.904227    -0.601006    1.135013    13.673546    -1.035935    -1.506788    31.081856    -1.158919    -0.460638    -11.485589    -1.536985    -13.394501    22.950037    7.904635    -37.662712    37.388004    -16.392221    2.878388    -6.632428    -56.917446    21.978500    -5.366191    -1.471946    17.713028    30.506104    -4.302079    21.064516    43.166000    28.352674    -16.217710    -23.202564    47.497208    -18.176813    -15.455847    -6.386694    2.548486    -17.333273    4.132774    -9.460431    20.318829    5.084297    8.025615    -11.643620    4.449392    0.000000    0.000000    0.000000    -4.625272    -18.298378    -2.420797    6.202980    62.813477    7.112755    -2.451733    -16.601816    -12.080986    0.000000    0.000000    0.000000    
-10.183486    78.123627    -116.022804    1.276348    -4.843115    -6.190998    -4.959897    7.203666    -0.651615    1.056737    13.573568    -1.089860    -1.471033    31.071054    -1.142365    -0.412677    -11.707540    -1.503635    -13.114794    22.822329    7.793764    -38.078976    37.422798    -15.763964    3.071968    -6.610620    -57.919350    22.459044    -5.137660    -1.099333    17.840414    30.560266    -4.430244    21.288570    43.233967    28.056816    -16.139902    -23.340479    47.559341    -18.481138    -15.588835    -6.504361    2.493860    -17.162954    4.071433    -9.422782    20.130764    5.164628    7.718188    -11.757112    4.333530    0.000000    0.000000    0.000000    -4.444288    -18.840416    -2.456090    6.064349    62.276348    7.241066    -2.622641    -16.664034    -12.001220    0.000000    0.000000    0.000000    
-10.157809    78.192665    -115.847694    1.269496    -4.755730    -6.128119    -4.974737    7.442170    -0.696636    1.071999    13.618459    -1.148382    -1.609859    30.909376    -1.087709    -0.294845    -11.902095    -1.436344    -12.970655    22.491695    7.686911    -38.466286    37.584621    -15.024193    3.429955    -6.649996    -58.845734    22.364685    -4.921054    -0.990726    17.871630    30.483761    -4.539879    21.582632    43.287674    27.709330    -16.013302    -23.450754    47.667381    -18.497475    -15.740245    -6.509516    2.464980    -17.146059    4.041854    -9.399821    20.204836    5.207533    7.259254    -11.969452    4.315281    0.000000    0.000000    0.000000    -4.235733    -19.408148    -2.442953    5.908697    61.728252    7.283617    -2.517059    -16.717388    -11.798285    0.000000    0.000000    0.000000    
-10.141462    78.255783    -115.680862    1.221681    -4.637559    -5.999258    -4.934941    7.683750    -0.757113    1.077259    13.605257    -1.217265    -1.698131    30.819185    -1.079683    -0.161923    -12.131371    -1.407096    -12.808704    22.293056    7.585528    -38.786232    37.776459    -14.408595    3.647302    -6.811406    -59.749966    22.973955    -4.924794    -0.973941    17.912823    30.404140    -4.661315    21.946472    43.333344    27.310314    -15.792410    -23.460791    47.903786    -19.177893    -15.707657    -6.896147    2.469669    -17.171474    3.963949    -9.374458    20.277779    5.251751    6.865728    -12.211089    4.268858    0.000000    0.000000    0.000000    -4.014063    -19.978951    -2.485367    5.810232    61.186417    7.460153    -2.329234    -16.756660    -11.826438    0.000000    0.000000    0.000000    
-10.111992    78.308266    -115.520432    1.208540    -4.488214    -5.933269    -4.885822    7.914727    -0.800425    0.977314    13.504577    -1.254420    -1.716007    30.774117    -1.071472    -0.069002    -12.325349    -1.377659    -12.555534    22.201708    7.485778    -39.157124    37.861607    -13.832696    3.811983    -6.888829    -60.672626    23.487461    -4.817645    -0.712776    18.024698    30.435154    -4.793012    22.157011    43.513329    26.991247    -15.760314    -23.656000    48.027462    -19.417467    -15.859845    -7.093457    2.454730    -17.202490    3.954448    -9.355631    20.315563    5.171585    6.629242    -12.442828    4.350802    0.000000    0.000000    0.000000    -3.814503    -20.598856    -2.463809    5.729188    60.597996    7.602359    -1.957730    -16.832951    -11.894255    0.000000    0.000000    0.000000    
-10.090648    78.364090    -115.343819    1.186742    -4.372036    -5.852758    -4.832363    8.198632    -0.859014    0.892785    13.400401    -1.310489    -1.692453    30.659813    -1.051126    -0.113129    -12.473116    -1.362182    -12.374840    22.027676    7.481444    -39.500633    37.977962    -13.197983    4.025209    -6.907048    -61.677086    23.971832    -4.577165    -0.287768    18.143137    30.415180    -4.930358    22.493145    43.547905    26.585186    -15.623190    -23.694401    48.190681    -19.541595    -15.903934    -7.230261    2.448028    -17.176638    3.968123    -9.341047    20.333727    5.027084    6.541262    -12.666619    4.487961    0.000000    0.000000    0.000000    -3.605761    -21.134657    -2.410429    5.691429    59.962219    7.584363    -1.439502    -16.940470    -11.839181    0.000000    0.000000    0.000000    
-10.069508    78.415764    -115.177177    1.168541    -4.247720    -5.765437    -4.803655    8.434731    -0.910000    0.844740    13.373653    -1.363516    -1.745079    30.581598    -1.032512    -0.006939    -12.724102    -1.322459    -12.185353    21.951576    7.441339    -39.827118    38.007118    -12.682078    4.226297    -6.896974    -62.613148    24.595915    -4.354586    -0.070124    18.240396    30.349030    -5.034224    22.781490    43.713474    26.180183    -15.612335    -23.829510    48.306301    -19.719025    -15.997360    -7.372098    2.435861    -17.173254    3.962162    -9.333535    20.337818    5.127263    6.300368    -12.927797    4.374911    0.000000    0.000000    0.000000    -3.447073    -21.688608    -2.274506    5.869890    59.376129    7.662147    -0.281057    -17.142069    -12.096884    0.000000    0.000000    0.000000    
